# Blender v2.76 (sub 0) OBJ File: 'doors.blend'
# www.blender.org
mtllib doors.mtl
o Cube
v -0.500000 0.000000 -0.050000
v 0.500000 0.000000 -0.050000
v 0.500000 0.000000 0.050000
v -0.500000 0.000000 0.050000
v -0.500000 1.000000 -0.050000
v 0.500000 1.000000 -0.050000
v 0.500000 1.000000 0.050000
v -0.500000 1.000000 0.050000
v -0.500000 0.000000 0.000000
v -0.500000 0.500000 -0.050000
v 0.500000 0.000000 -0.000000
v 0.500000 0.500000 -0.050000
v 0.500000 0.500000 0.050000
v -0.500000 0.500000 0.050000
v 0.000000 1.000000 -0.050000
v -0.500000 1.000000 0.000000
v -0.000000 1.000000 0.050000
v -0.500000 0.000000 0.025000
v -0.500000 0.750000 -0.050000
v 0.500000 0.000000 0.025000
v 0.500000 0.750000 -0.050000
v 0.500000 0.750000 0.050000
v -0.500000 0.750000 0.050000
v 0.250000 1.000000 -0.050000
v -0.500000 1.000000 0.025000
v -0.250000 1.000000 0.050000
v -0.500000 0.000000 -0.025000
v -0.500000 0.250000 -0.050000
v 0.500000 0.000000 -0.025000
v 0.500000 0.250000 -0.050000
v 0.500000 0.250000 0.050000
v -0.500000 0.250000 0.050000
v -0.250000 1.000000 -0.050000
v -0.500000 1.000000 -0.025000
v 0.250000 1.000000 0.050000
v 0.375000 0.000000 -0.050000
v -0.500000 0.000000 0.037500
v -0.500000 0.875000 -0.050000
v 0.500000 0.000000 0.037500
v 0.500000 0.875000 -0.050000
v -0.375000 0.000000 0.050000
v 0.500000 0.875000 0.050000
v -0.500000 0.875000 0.050000
v 0.375000 1.000000 -0.050000
v -0.500000 1.000000 0.037500
v -0.375000 1.000000 0.050000
v -0.500000 0.000000 -0.012500
v -0.500000 0.375000 -0.050000
v 0.500000 0.000000 -0.012500
v 0.500000 0.375000 -0.050000
v 0.500000 0.375000 0.050000
v -0.500000 0.375000 0.050000
v -0.125000 1.000000 -0.050000
v -0.500000 1.000000 -0.012500
v 0.125000 1.000000 0.050000
v -0.375000 0.500000 0.050000
v 0.375000 0.500000 -0.050000
v -0.500000 0.000000 0.012500
v -0.500000 0.625000 -0.050000
v 0.500000 0.000000 0.012500
v 0.500000 0.625000 -0.050000
v 0.500000 0.625000 0.050000
v -0.500000 0.625000 0.050000
v 0.125000 1.000000 -0.050000
v -0.500000 1.000000 0.012500
v -0.125000 1.000000 0.050000
v -0.375000 0.000000 -0.050000
v -0.500000 0.000000 -0.037500
v -0.500000 0.125000 -0.050000
v 0.500000 0.000000 -0.037500
v 0.500000 0.125000 -0.050000
v 0.375000 0.000000 0.050000
v 0.500000 0.125000 0.050000
v -0.500000 0.125000 0.050000
v -0.375000 1.000000 -0.050000
v -0.500000 1.000000 -0.037500
v 0.375000 1.000000 0.050000
v 0.375000 0.500000 0.050000
v -0.000000 0.875000 0.050000
v -0.375000 0.500000 -0.050000
v 0.000000 0.875000 -0.050000
v -0.375000 0.750000 -0.050000
v -0.250000 0.875000 -0.050000
v -0.375000 0.250000 -0.050000
v 0.375000 0.250000 -0.050000
v 0.375000 0.750000 0.050000
v 0.250000 0.875000 0.050000
v 0.375000 0.250000 0.050000
v -0.375000 0.250000 0.050000
v -0.375000 0.750000 0.050000
v 0.375000 0.750000 -0.050000
v 0.250000 0.875000 -0.050000
v 0.375000 0.000000 0.012500
v 0.125000 0.875000 -0.050000
v 0.375000 0.625000 -0.050000
v -0.125000 0.875000 0.050000
v -0.375000 0.625000 0.050000
v -0.375000 0.125000 0.050000
v 0.375000 0.375000 0.050000
v 0.375000 0.125000 0.050000
v 0.375000 0.875000 0.050000
v 0.375000 0.625000 0.050000
v 0.375000 0.125000 -0.050000
v -0.375000 0.375000 -0.050000
v -0.375000 0.125000 -0.050000
v -0.375000 0.875000 -0.050000
v -0.375000 0.625000 -0.050000
v -0.375000 0.000000 0.012500
v -0.375000 0.000000 0.037500
v -0.375000 0.000000 -0.037500
v -0.375000 0.000000 -0.012500
v 0.375000 0.000000 -0.037500
v 0.375000 0.000000 -0.012500
v -0.125000 0.875000 -0.050000
v 0.375000 0.375000 -0.050000
v 0.125000 0.875000 0.050000
v -0.375000 0.375000 0.050000
v -0.375000 0.875000 0.050000
v 0.375000 0.875000 -0.050000
v 0.375000 0.000000 0.037500
v -0.250000 0.875000 0.050000
v -0.375000 0.875000 0.000000
v -0.375000 0.875000 0.025000
v -0.375000 0.875000 -0.025000
v -0.281250 0.875000 0.000000
v -0.312500 0.875000 -0.025000
v -0.312500 0.875000 0.025000
v -0.343750 0.875000 0.025000
v -0.343750 0.875000 -0.025000
v -0.281250 0.875000 -0.025000
v -0.281250 0.875000 0.025000
v -0.375000 0.000000 -0.025000
v -0.375000 0.000000 0.000000
v -0.343750 0.000000 0.000000
v -0.312500 0.000000 0.000000
v -0.312500 0.000000 0.025000
v -0.375000 0.000000 0.025000
v -0.281250 0.000000 0.000000
v -0.312500 0.000000 -0.025000
v -0.343750 0.000000 0.025000
v -0.343750 0.000000 -0.025000
v -0.281250 0.000000 -0.025000
v -0.281250 0.000000 0.025000
v 0.375000 0.875000 0.000000
v 0.375000 0.875000 -0.025000
v 0.375000 0.875000 0.025000
v 0.281250 0.875000 0.000000
v 0.312500 0.875000 -0.025000
v 0.312500 0.875000 0.025000
v 0.343750 0.875000 0.025000
v 0.343750 0.875000 -0.025000
v 0.281250 0.875000 -0.025000
v 0.281250 0.875000 0.025000
v 0.375000 0.000000 0.025000
v 0.375000 0.000000 0.000000
v 0.343750 0.000000 0.000000
v 0.312500 0.000000 0.000000
v 0.312500 0.000000 0.025000
v 0.375000 0.000000 -0.025000
v 0.281250 0.000000 0.000000
v 0.312500 0.000000 -0.025000
v 0.343750 0.000000 0.025000
v 0.343750 0.000000 -0.025000
v 0.281250 0.000000 -0.025000
v 0.281250 0.000000 0.025000
vn 0.000000 -1.000000 0.000000
vn 0.000000 0.000000 -1.000000
vn 0.000000 -0.000000 1.000000
vn -1.000000 0.000000 -0.000000
vn 1.000000 -0.000000 0.000000
vn 0.000000 1.000000 -0.000000
usemtl Material
s off
f 120//1 39//1 3//1 72//1
f 119//2 44//2 6//2 40//2
f 118//3 46//3 8//3 43//3
f 117//3 56//3 14//3 52//3
f 116//3 55//3 17//3 79//3
f 115//2 57//2 12//2 50//2
f 114//2 53//2 15//2 81//2
f 106//2 75//2 33//2 83//2
f 103//2 85//2 30//2 71//2
f 101//3 77//3 35//3 87//3
f 98//3 89//3 32//3 74//3
f 97//3 90//3 23//3 63//3
f 95//2 91//2 21//2 61//2
f 94//2 64//2 24//2 92//2
f 81//2 15//2 64//2 94//2
f 57//2 95//2 61//2 12//2
f 79//3 17//3 66//3 96//3
f 56//3 97//3 63//3 14//3
f 18//4 37//4 4//4 74//4 32//4 52//4 14//4 63//4 23//4 43//4 8//4 45//4 25//4 65//4 16//4 54//4 34//4 76//4 5//4 38//4 19//4 59//4 10//4 48//4 28//4 69//4 1//4 68//4 27//4 47//4 9//4 58//4
f 41//3 98//3 74//3 4//3
f 31//3 51//3 99//3 88//3
f 51//3 13//3 78//3 99//3
f 3//3 73//3 100//3 72//3
f 73//3 31//3 88//3 100//3
f 22//3 42//3 101//3 86//3
f 42//3 7//3 77//3 101//3
f 13//3 62//3 102//3 78//3
f 62//3 22//3 86//3 102//3
f 6//5 7//5 42//5 22//5 62//5 13//5 51//5 31//5 73//5 3//5 39//5 20//5 60//5 11//5 49//5 29//5 70//5 2//5 71//5 30//5 50//5 12//5 61//5 21//5 40//5
f 36//2 103//2 71//2 2//2
f 28//2 48//2 104//2 84//2
f 48//2 10//2 80//2 104//2
f 1//2 69//2 105//2 67//2
f 69//2 28//2 84//2 105//2
f 19//2 38//2 106//2 82//2
f 38//2 5//2 75//2 106//2
f 10//2 59//2 107//2 80//2
f 59//2 19//2 82//2 107//2
f 35//6 77//6 7//6 6//6 44//6 24//6 64//6 15//6 53//6 33//6 75//6 5//6 76//6 34//6 54//6 16//6 65//6 25//6 45//6 8//6 46//6 26//6 66//6 17//6 55//6
f 37//1 109//1 41//1 4//1
f 1//1 67//1 110//1 68//1
f 36//1 2//1 70//1 112//1
f 83//2 33//2 53//2 114//2
f 85//2 115//2 50//2 30//2
f 87//3 35//3 55//3 116//3
f 89//3 117//3 52//3 32//3
f 90//3 118//3 43//3 23//3
f 91//2 119//2 40//2 21//2
f 92//2 24//2 44//2 119//2
f 126//3 129//3 141//3 139//3
f 124//5 122//5 133//5 132//5
f 131//4 125//4 138//4 143//4
f 128//2 127//2 136//2 140//2
f 127//2 131//2 143//2 136//2
f 130//3 126//3 139//3 142//3
f 141//6 134//6 135//6 139//6
f 134//6 140//6 136//6 135//6
f 133//6 137//6 140//6 134//6
f 132//6 133//6 134//6 141//6
f 139//6 135//6 138//6 142//6
f 135//6 136//6 143//6 138//6
f 125//4 130//4 142//4 138//4
f 123//2 128//2 140//2 137//2
f 122//5 123//5 137//5 133//5
f 129//3 124//3 132//3 141//3
f 152//2 148//2 161//2 164//2
f 151//2 145//2 159//2 163//2
f 145//5 144//5 155//5 159//5
f 146//3 150//3 162//3 154//3
f 147//4 152//4 164//4 160//4
f 148//2 151//2 163//2 161//2
f 163//1 156//1 157//1 161//1
f 156//1 162//1 158//1 157//1
f 155//1 154//1 162//1 156//1
f 159//1 155//1 156//1 163//1
f 161//1 157//1 160//1 164//1
f 157//1 158//1 165//1 160//1
f 149//3 153//3 165//3 158//3
f 150//3 149//3 158//3 162//3
f 153//4 147//4 160//4 165//4
f 144//5 146//5 154//5 155//5
f 113//1 49//1 11//1 155//1
f 112//1 70//1 29//1 159//1
f 96//3 66//3 26//3 121//3
f 93//1 60//1 20//1 154//1
f 155//1 11//1 60//1 93//1
f 58//1 108//1 137//1 18//1
f 9//1 133//1 108//1 58//1
f 18//1 137//1 109//1 37//1
f 68//1 110//1 132//1 27//1
f 47//1 111//1 133//1 9//1
f 27//1 132//1 111//1 47//1
f 159//1 29//1 49//1 113//1
f 121//3 26//3 46//3 118//3
f 154//1 20//1 39//1 120//1
f 56//5 117//5 89//5 98//5 41//5 109//5 137//5 108//5 133//5 111//5 132//5 110//5 67//5 105//5 84//5 104//5 80//5 107//5 82//5 106//5 118//5 90//5 97//5
f 94//1 92//1 119//1 145//1 144//1 146//1 101//1 87//1 116//1 79//1 96//1 121//1 118//1 106//1 83//1 114//1 81//1
f 93//4 154//4 120//4 72//4 100//4 88//4 99//4 78//4 102//4 86//4 101//4 146//4 144//4 145//4 119//4 91//4 95//4 57//4 115//4 85//4 103//4 36//4 112//4 159//4 113//4 155//4
f 106//1 118//1 123//1 122//1 124//1
